<svg viewBox="0 0 250 246" fill="none" xmlns="http://www.w3.org/2000/svg"><g clip-path="url(#clip0_306_189)" fill="#fff"><path d="M10.043 10.868h229.949v223.677H10.043V10.868z" fill-opacity=".2"/><path fill-rule="evenodd" clip-rule="evenodd" d="M165.138 86.332c-.941 0-1.254.42-1.254 1.254H164v82.363c0 .842.314 1.362 1.362 1.362h16.189c1.049 0 1.255-.422 1.255-1.255v-82.47c0-.94-.421-1.254-1.255-1.254h-16.413zm.722-30.01c-2 2-3.123 4.712-3.123 7.54h.018a9.856 9.856 0 0010.437 10.661 9.988 9.988 0 0010.868-10.661A10.66 10.66 0 00173.398 53.2a10.66 10.66 0 00-7.538 3.123zm-53.831 51.535c1.445 5.497 2.754 10.477 3.672 14.124H90.937c4.39-16.199 9.927-36.895 12.122-49.124h.206c1.772 8.4 5.595 22.942 8.764 35zm-33.644 62.414l8.26-31.357.01.018H120.1l8.574 31.465c.206.69.734.896 1.568.896h17.354c.833 0 1.039-.529.833-1.362L115.19 57.151c-.206-.842-.52-1.048-1.254-1.048h-21.95c-.52 0-.834.314-.834 1.048a33.858 33.858 0 01-1.048 8.673L60.422 169.752c-.206 1.254 0 1.568 1.048 1.568h15.347c1.049 0 1.362-.216 1.568-1.049z"/><path fill-rule="evenodd" clip-rule="evenodd" d="M-.43 213.001c0 17.673 14.327 32 32 32h186.86c17.674 0 32-14.327 32-32V32.412c0-17.673-14.326-32-32-32H31.57c-17.673 0-32 14.327-32 32v180.589zM239.993 10.868H10.043v223.677h229.95V10.868z" fill-opacity=".2"/></g><defs><clipPath id="clip0_306_189"><path fill="#fff" d="M0 0h250v245.413H0z"/></clipPath></defs></svg>