<svg viewBox="0 0 250 251" fill="none" xmlns="http://www.w3.org/2000/svg"><g clip-path="url(#clip0_306_184)"><path d="M208.496.999H41.504C18.582.999 0 20.026 0 43.499v164.6c0 23.472 18.582 42.5 41.504 42.5h166.992c22.922 0 41.504-19.028 41.504-42.5v-164.6c0-23.473-18.582-42.5-41.504-42.5z" fill="#0E201B"/><path d="M131.424 66.639l-31.194 52.723 33.374 55.985c.214.392.274.852.168 1.288-.052.186-.163.232-.334.239l-.19-.003-.23-.006c-.125 0-.265.006-.42.032h-24.063l-.472-.008c-1.297-.035-2.232-.225-2.801-1.199a3364.708 3364.708 0 00-6.71-13.309 472.654 472.654 0 00-6.19-11.767l-.936-1.714a791.71 791.71 0 01-7.463-13.91h-.168a538.944 538.944 0 01-6.96 13.738c-2.405 4.58-4.781 9.132-7.128 13.653a615.204 615.204 0 01-7.21 13.481c-.396.91-1.053 1.1-1.968 1.131l-.381.006H37.172l-.1.003-.328.03c-.182.011-.292-.029-.327-.311a1.758 1.758 0 01.252-1.202l32.367-54.44-31.529-54.61c-.335-.456-.39-.828-.168-1.116.124-.147.28-.262.454-.337a1.18 1.18 0 01.553-.093h23.646a3.433 3.433 0 011.51.258c.4.233.745.556 1.006.945 2.013 4.58 4.249 9.16 6.709 13.738a740.664 740.664 0 007.463 13.567 193.511 193.511 0 016.96 13.567h.168A510.918 510.918 0 0192.6 93.26c2.29-4.465 4.638-8.96 7.043-13.482a628.174 628.174 0 006.96-13.48 2.66 2.66 0 01.671-1.117 2.393 2.393 0 011.341-.258h21.97a.942.942 0 01.607.048.967.967 0 01.456.412 1.004 1.004 0 01-.135 1.174l-.088.084-.001-.002zm49.287 112.473l-1.156.013a50.933 50.933 0 01-22.39-4.808c-6.541-3.1-12.009-8.161-15.68-14.512-3.703-6.296-5.603-14.142-5.699-23.535l-.004-.765a45.703 45.703 0 015.703-22.497c3.802-6.786 9.345-12.376 16.028-16.166l.575-.32c7.266-4.122 16.043-6.183 26.33-6.183l.449.005.514.017.576.026.641.038 1.076.078 1.219.1.891.08V56.85c0-.8.336-1.202 1.006-1.202h21.132a.87.87 0 01.755.257.934.934 0 01.251.773v101.495c0 1.704.064 3.54.193 5.504l.313 4.455.166 2.577c.02.357-.065.711-.244 1.018-.18.307-.446.55-.763.7a81.768 81.768 0 01-16.939 5.151 88.953 88.953 0 01-14.943 1.533zm9.073-21.282v-46.883a16.179 16.179 0 00-2.766-.515 32.378 32.378 0 00-3.439-.172c-4.069-.042-8.091.9-11.739 2.748a23.093 23.093 0 00-8.805 7.9c-2.214 3.316-3.359 7.646-3.434 12.99l-.004.577a30.922 30.922 0 001.761 10.99 20.954 20.954 0 004.697 7.557 17.805 17.805 0 007.043 4.293 27.02 27.02 0 008.636 1.375c1.565 0 3.018-.058 4.361-.173a17.692 17.692 0 003.172-.54l.517-.147z" fill="#2DBE96"/></g><defs><clipPath id="clip0_306_184"><path fill="#fff" transform="translate(0 .999)" d="M0 0h250v250H0z"/></clipPath></defs></svg>