<svg viewBox="0 0 250 248" fill="none" xmlns="http://www.w3.org/2000/svg"><path d="M102.604 87.708c-3.854-1.562-8.02-2.187-12.291-2.083-2.709 0-5.105 0-7.084.104-2.083-.104-3.541 0-4.27.104v35c1.458.105 2.812.209 4.062.209h5.52c4.063 0 8.126-.625 11.98-1.875 3.333-.938 6.25-2.917 8.542-5.521 2.187-2.604 3.229-6.146 3.229-10.729a17.15 17.15 0 00-2.396-9.271 15.103 15.103 0 00-7.292-5.938zM205.729 3.125H44.271C19.79 3.125 0 22.917 0 47.395v155.199c0 24.479 19.792 44.271 44.27 44.271h161.46c24.479 0 44.271-19.792 44.271-44.271V47.396c0-24.48-19.792-44.271-44.271-44.271zM128.74 124.479c-4.157 5.834-9.99 10.209-16.761 12.709-7.083 2.604-14.896 3.541-23.437 3.541-2.5 0-4.167 0-5.209-.104-1.041-.104-2.5-.104-4.479-.104v33.427c.104.729-.416 1.365-1.146 1.469H57.5c-.833 0-1.25-.427-1.25-1.365V66.875c0-.73.313-1.146 1.042-1.146 1.77 0 3.437 0 5.833-.104 2.5-.104 5.104-.104 7.917-.208 2.812-.105 5.833-.105 9.062-.209 3.23-.104 6.354-.104 9.48-.104 8.541 0 15.624 1.042 21.458 3.23 5.208 1.77 10 4.687 13.958 8.541a33.161 33.161 0 017.604 11.875c1.552 4.375 2.386 8.854 2.386 13.542.01 8.958-2.073 16.354-6.25 22.187zM202.604 165a26.318 26.318 0 01-11.666 9.281c-5.105 2.177-11.355 3.313-18.865 3.313-4.781 0-9.479-.406-14.156-1.344a42.438 42.438 0 01-10.625-3.333c-.73-.407-1.261-1.136-1.157-1.969v-18.125c0-.302.115-.729.427-.938.303-.208.626-.104.938.105a44.331 44.331 0 0012.917 5.104c3.948 1.041 8.114 1.562 12.291 1.562 3.959 0 6.771-.531 8.646-1.468 1.667-.73 2.813-2.5 2.813-4.376 0-1.468-.834-2.812-2.5-4.166-1.667-1.344-5.094-2.906-10.198-4.906-5.313-1.875-10.198-4.375-14.792-7.49a27.35 27.35 0 01-7.927-8.854 22.467 22.467 0 01-2.385-10.636c0-4.479 1.25-8.75 3.552-12.604 2.604-4.166 6.448-7.5 10.927-9.583 4.885-2.49 11.031-3.635 18.427-3.635 4.271 0 8.646.312 12.917.937a36.658 36.658 0 018.958 2.396c.406.104.833.52 1.042.937.104.417.208.834.208 1.25v16.98c0 .416-.208.833-.521 1.041-.937.209-1.458.209-1.875 0-3.125-1.667-6.458-2.812-10-3.541-3.854-.834-7.708-1.355-11.667-1.355-2.083-.104-4.271.209-6.26.73-1.344.312-2.5 1.041-3.229 2.083-.521.833-.834 1.875-.834 2.812 0 .938.417 1.875 1.052 2.709.938 1.145 2.178 2.083 3.542 2.812 2.386 1.25 4.896 2.396 7.386 3.438 5.635 1.875 11.052 4.479 16.052 7.604 3.437 2.177 6.25 5.104 8.218 8.646a22.414 22.414 0 012.396 10.718c.115 4.907-1.343 9.792-4.052 13.865z" fill="#fff" fill-opacity=".2"/><path d="M202.604 165a26.318 26.318 0 01-11.666 9.281c-5.105 2.177-11.355 3.313-18.865 3.313-4.781 0-9.479-.406-14.156-1.344a42.438 42.438 0 01-10.625-3.333c-.73-.407-1.261-1.136-1.157-1.969v-18.125c0-.302.115-.729.427-.938.303-.208.626-.104.938.105a44.331 44.331 0 0012.917 5.104c3.948 1.041 8.114 1.562 12.291 1.562 3.959 0 6.771-.531 8.646-1.468 1.667-.73 2.813-2.5 2.813-4.376 0-1.468-.834-2.812-2.5-4.166-1.667-1.344-5.094-2.906-10.198-4.906-5.313-1.875-10.198-4.375-14.792-7.49a27.35 27.35 0 01-7.927-8.854 22.467 22.467 0 01-2.385-10.636c0-4.479 1.25-8.75 3.552-12.604 2.604-4.166 6.448-7.5 10.927-9.583 4.885-2.49 11.031-3.635 18.427-3.635 4.271 0 8.646.312 12.917.937a36.658 36.658 0 018.958 2.396c.406.104.833.52 1.042.937.104.417.208.834.208 1.25v16.98c0 .416-.208.833-.521 1.041-.937.209-1.458.209-1.875 0-3.125-1.667-6.458-2.812-10-3.541-3.854-.834-7.708-1.355-11.667-1.355-2.083-.104-4.271.209-6.26.73-1.344.312-2.5 1.041-3.229 2.083-.521.833-.834 1.875-.834 2.812 0 .938.417 1.875 1.052 2.709.938 1.145 2.178 2.083 3.542 2.812 2.386 1.25 4.896 2.396 7.386 3.438 5.635 1.875 11.052 4.479 16.052 7.604 3.437 2.177 6.25 5.104 8.218 8.646a22.414 22.414 0 012.396 10.718c.115 4.907-1.343 9.792-4.052 13.865z" fill="#fff"/><path fill-rule="evenodd" clip-rule="evenodd" d="M128.74 124.479c-4.157 5.834-9.99 10.209-16.761 12.709-7.083 2.604-14.896 3.541-23.437 3.541-2.5 0-4.167 0-5.209-.104-1.041-.104-2.5-.104-4.479-.104v33.427c.104.729-.416 1.365-1.146 1.469H57.5c-.833 0-1.25-.427-1.25-1.365V66.875c0-.73.313-1.146 1.042-1.146 1.77 0 3.437 0 5.833-.104 2.5-.104 5.104-.104 7.917-.208 2.812-.105 5.833-.105 9.062-.209 3.23-.104 6.354-.104 9.48-.104 8.541 0 15.624 1.042 21.458 3.23 5.208 1.77 10 4.687 13.958 8.541a33.161 33.161 0 017.604 11.875c1.552 4.375 2.386 8.854 2.386 13.542.01 8.958-2.073 16.354-6.25 22.187zM90.312 85.625c4.271-.104 8.438.52 12.292 2.083a15.103 15.103 0 017.292 5.938 17.153 17.153 0 012.396 9.271c0 4.583-1.042 8.125-3.229 10.729-2.292 2.604-5.209 4.583-8.542 5.521a38.912 38.912 0 01-11.98 1.875h-5.52c-1.25 0-2.604-.104-4.063-.209v-35c.73-.104 2.188-.208 4.271-.104 1.98-.104 4.375-.104 7.084-.104z" fill="#fff"/></svg>