<svg width="250" height="250" fill="none" xmlns="http://www.w3.org/2000/svg"><path d="M191.406 0H58.594C26.234 0 0 26.233 0 58.594v132.812C0 223.767 26.233 250 58.594 250h132.812C223.767 250 250 223.767 250 191.406V58.594C250 26.234 223.767 0 191.406 0z" fill="#fff" fill-opacity=".2"/><path d="M125 143.507c10.063 0 18.219-8.157 18.219-18.219 0-10.061-8.156-18.219-18.219-18.219-10.062 0-18.219 8.158-18.219 18.219 0 10.062 8.157 18.219 18.219 18.219z" fill="#fff"/><path d="M125.002 88.245c24.461 0 47.185 3.51 64.318 9.41 20.644 7.106 33.336 17.878 33.336 27.633 0 10.165-13.451 21.609-35.62 28.954-16.76 5.553-38.814 8.451-62.034 8.451-23.807 0-46.35-2.72-63.3-8.512-21.443-7.329-34.358-18.921-34.358-28.893 0-9.676 12.119-20.365 32.472-27.46 17.198-5.997 40.482-9.583 65.182-9.583h.004z" stroke="#fff" stroke-width="8.911"/><path d="M92.756 106.873c12.22-21.19 26.612-39.121 40.282-51.016 16.469-14.333 32.143-19.946 40.592-15.074 8.805 5.078 12 22.45 7.288 45.323-3.56 17.291-12.07 37.844-23.67 57.959-11.894 20.623-25.512 38.793-38.995 50.579-17.062 14.914-33.557 20.311-42.195 15.33-8.381-4.83-11.587-20.671-7.565-41.848 3.398-17.894 11.924-39.855 24.259-61.253h.004z" stroke="#fff" stroke-width="8.911"/><path d="M92.786 144.119c-12.255-21.166-20.599-42.594-24.081-60.377-4.192-21.427-1.229-37.809 7.214-42.695 8.798-5.094 25.441.814 42.904 16.32 13.203 11.723 26.761 29.357 38.395 49.452 11.927 20.604 20.867 41.478 24.344 59.044 4.401 22.231.839 39.216-7.791 44.211-8.373 4.848-23.696-.284-40.035-14.345-13.805-11.878-28.574-30.233-40.95-51.61z" stroke="#fff" stroke-width="8.911"/></svg>