<svg viewBox="0 0 250 251" fill="none" xmlns="http://www.w3.org/2000/svg"><path fill-rule="evenodd" clip-rule="evenodd" d="M205.729 4.124H44.271C19.79 4.124 0 23.915 0 48.394v155.198c0 24.479 19.792 44.271 44.27 44.271h161.46c24.479 0 44.271-19.792 44.271-44.271V48.394c0-24.479-19.792-44.27-44.271-44.27zm-93.75 134.062c6.771-2.5 12.604-6.875 16.761-12.708 4.177-5.834 6.26-13.229 6.25-22.188 0-4.687-.834-9.166-2.386-13.541A33.163 33.163 0 00125 77.874a37.197 37.197 0 00-13.958-8.542c-5.834-2.188-12.917-3.23-21.459-3.23-3.125 0-6.25 0-9.479.105-3.229.104-6.25.104-9.062.208-2.813.104-5.417.104-7.917.209-2.396.104-4.063.104-5.833.104-.73 0-1.042.416-1.042 1.146V175.05c0 .937.417 1.364 1.25 1.364h20.208c.73-.104 1.25-.739 1.146-1.469v-33.427c1.98 0 3.438 0 4.48.105 1.041.104 2.708.104 5.208.104 8.541 0 16.354-.938 23.437-3.542zm78.959 37.094a26.325 26.325 0 0011.666-9.281c2.709-4.073 4.167-8.959 4.052-13.865a22.418 22.418 0 00-2.396-10.719c-1.968-3.541-4.781-6.469-8.218-8.646-5-3.125-10.417-5.729-16.052-7.604-2.49-1.041-5-2.187-7.386-3.437-1.364-.729-2.604-1.667-3.542-2.813-.635-.833-1.052-1.771-1.052-2.708 0-.938.313-1.979.834-2.813.729-1.041 1.885-1.77 3.229-2.083 1.989-.521 4.177-.833 6.26-.729 3.959 0 7.813.521 11.667 1.354 3.542.729 6.875 1.875 10 3.542.417.208.938.208 1.875 0 .313-.209.521-.625.521-1.042v-16.98c0-.416-.104-.832-.208-1.25-.209-.416-.636-.832-1.042-.937a36.654 36.654 0 00-8.958-2.395 89.806 89.806 0 00-12.917-.938c-7.396 0-13.542 1.146-18.427 3.635-4.479 2.084-8.323 5.417-10.927 9.584-2.302 3.854-3.552 8.125-3.552 12.604-.09 3.687.729 7.34 2.385 10.635a27.353 27.353 0 007.927 8.855c4.594 3.114 9.479 5.614 14.792 7.489 5.104 2 8.531 3.563 10.198 4.906 1.666 1.355 2.5 2.698 2.5 4.167 0 1.875-1.146 3.646-2.813 4.375-1.875.938-4.687 1.469-8.646 1.469-4.177 0-8.343-.521-12.291-1.563a44.275 44.275 0 01-12.917-5.104c-.312-.208-.635-.312-.938-.104-.312.208-.427.635-.427.937v18.125c-.104.834.427 1.563 1.157 1.969a42.44 42.44 0 0010.625 3.334c4.677.937 9.375 1.343 14.156 1.343 7.51 0 13.76-1.135 18.865-3.312z" fill="#0E201B"/><path fill-rule="evenodd" clip-rule="evenodd" d="M128.74 125.478c-4.157 5.833-9.99 10.208-16.761 12.708-7.083 2.604-14.896 3.542-23.437 3.542-2.5 0-4.167 0-5.209-.104-1.041-.105-2.5-.105-4.479-.105v33.427c.104.73-.416 1.365-1.146 1.469H57.5c-.833 0-1.25-.427-1.25-1.364V67.874c0-.73.313-1.146 1.042-1.146 1.77 0 3.437 0 5.833-.104 2.5-.105 5.104-.105 7.917-.209 2.812-.104 5.833-.104 9.062-.208 3.23-.104 6.354-.104 9.48-.104 8.541 0 15.624 1.041 21.458 3.229 5.208 1.77 10 4.687 13.958 8.542a33.163 33.163 0 017.604 11.875c1.552 4.375 2.386 8.854 2.386 13.541.01 8.959-2.073 16.354-6.25 22.188zM90.312 86.624c4.271-.105 8.438.52 12.292 2.083a15.103 15.103 0 017.292 5.937 17.152 17.152 0 012.396 9.271c0 4.584-1.042 8.125-3.229 10.729-2.292 2.605-5.209 4.584-8.542 5.521a38.912 38.912 0 01-11.98 1.875h-5.52c-1.16 0-2.41-.09-3.75-.186l-.313-.022v-35c.73-.104 2.188-.208 4.271-.104 1.98-.104 4.375-.104 7.084-.104z" fill="#2DBE96"/><path d="M202.604 165.999a26.325 26.325 0 01-11.666 9.281c-5.105 2.177-11.355 3.312-18.865 3.312-4.781 0-9.479-.406-14.156-1.343a42.44 42.44 0 01-10.625-3.334c-.73-.406-1.261-1.135-1.157-1.969v-18.125c0-.302.115-.729.427-.937.303-.208.626-.104.938.104a44.275 44.275 0 0012.917 5.104c3.948 1.042 8.114 1.563 12.291 1.563 3.959 0 6.771-.531 8.646-1.469 1.667-.729 2.813-2.5 2.813-4.375 0-1.469-.834-2.812-2.5-4.167-1.667-1.343-5.094-2.906-10.198-4.906-5.313-1.875-10.198-4.375-14.792-7.489a27.353 27.353 0 01-7.927-8.855 22.463 22.463 0 01-2.385-10.635c0-4.479 1.25-8.75 3.552-12.604 2.604-4.167 6.448-7.5 10.927-9.584 4.885-2.49 11.031-3.635 18.427-3.635 4.271 0 8.646.313 12.917.938a36.654 36.654 0 018.958 2.395c.406.105.833.521 1.042.938.104.417.208.833.208 1.25v16.979c0 .417-.208.833-.521 1.042-.937.208-1.458.208-1.875 0-3.125-1.667-6.458-2.813-10-3.542-3.854-.833-7.708-1.354-11.667-1.354-2.083-.104-4.271.208-6.26.729-1.344.313-2.5 1.042-3.229 2.083-.521.834-.834 1.875-.834 2.813 0 .937.417 1.875 1.052 2.708.938 1.146 2.178 2.084 3.542 2.813 2.386 1.25 4.896 2.396 7.386 3.437 5.635 1.875 11.052 4.479 16.052 7.604 3.437 2.177 6.25 5.105 8.218 8.646a22.418 22.418 0 012.396 10.719c.115 4.906-1.343 9.792-4.052 13.865z" fill="#2DBE96"/><path d="M102.604 88.707c-3.854-1.563-8.02-2.188-12.291-2.083-2.709 0-5.105 0-7.084.104-2.083-.104-3.541 0-4.27.104v35l.312.022c1.34.096 2.59.186 3.75.186h5.52c4.063 0 8.126-.625 11.98-1.875 3.333-.937 6.25-2.916 8.542-5.521 2.187-2.604 3.229-6.145 3.229-10.729a17.152 17.152 0 00-2.396-9.27 15.103 15.103 0 00-7.292-5.938z" fill="#0E201B"/></svg>