<svg width="250" height="251" fill="none" xmlns="http://www.w3.org/2000/svg"><g clip-path="url(#clip0_306_177)"><path d="M191.406.999H58.594C26.234.999 0 27.232 0 59.592v132.813c0 32.36 26.233 58.594 58.594 58.594h132.812c32.361 0 58.594-26.234 58.594-58.594V59.592C250 27.232 223.767 1 191.406 1z" fill="#0E201B"/><path d="M125.001 144.505c10.062 0 18.219-8.157 18.219-18.218 0-10.062-8.157-18.219-18.219-18.219-10.062 0-18.219 8.157-18.219 18.219 0 10.061 8.157 18.218 18.219 18.218z" fill="#2DBE96"/><path d="M125.002 89.244c24.461 0 47.185 3.51 64.318 9.409 20.644 7.106 33.336 17.879 33.336 27.634 0 10.165-13.451 21.609-35.62 28.954-16.76 5.552-38.814 8.451-62.034 8.451-23.807 0-46.35-2.721-63.3-8.513-21.443-7.329-34.358-18.921-34.358-28.892 0-9.676 12.119-20.366 32.472-27.461 17.198-5.996 40.482-9.582 65.182-9.582h.004z" stroke="#2DBE96" stroke-width="8.911"/><path d="M92.755 107.872c12.22-21.19 26.612-39.121 40.282-51.016 16.469-14.333 32.143-19.946 40.592-15.074 8.805 5.078 12 22.449 7.288 45.322-3.56 17.292-12.07 37.845-23.67 57.96-11.894 20.623-25.512 38.793-38.995 50.578-17.062 14.914-33.557 20.312-42.194 15.33-8.382-4.83-11.588-20.671-7.566-41.847 3.397-17.894 11.924-39.856 24.259-61.253h.004z" stroke="#2DBE96" stroke-width="8.911"/><path d="M92.785 145.118c-12.255-21.166-20.599-42.594-24.081-60.377-4.192-21.427-1.229-37.809 7.214-42.696 8.798-5.093 25.441.815 42.904 16.32 13.203 11.723 26.761 29.357 38.395 49.453 11.927 20.603 20.867 41.477 24.344 59.044 4.401 22.23.839 39.216-7.791 44.211-8.373 4.847-23.696-.284-40.035-14.345-13.805-11.879-28.574-30.233-40.95-51.61z" stroke="#2DBE96" stroke-width="8.911"/></g><defs><clipPath id="clip0_306_177"><path fill="#fff" transform="translate(0 .999)" d="M0 0h250v250H0z"/></clipPath></defs></svg>