<svg viewBox="0 0 250 247" fill="none" xmlns="http://www.w3.org/2000/svg"><g clip-path="url(#clip0_306_172)"><path d="M10.043 11.866h229.949v223.678H10.043V11.866z" fill="#0E201B"/><path fill-rule="evenodd" clip-rule="evenodd" d="M165.138 87.33c-.918 0-1.239.402-1.254 1.196 0 .032.026.059.058.059s.058.026.058.058v82.304c0 .842.314 1.362 1.362 1.362h16.189c1.049 0 1.255-.421 1.255-1.254v-82.47c0-.941-.421-1.255-1.255-1.255h-16.413zm.722-30.008a10.658 10.658 0 00-3.123 7.53c0 .004.004.008.008.008.006 0 .009.005.009.01a9.861 9.861 0 002.779 7.71 9.858 9.858 0 006.05 2.911c1.067.108 2.149.123 3.219.047a9.988 9.988 0 009.258-10.678 10.66 10.66 0 00-10.662-10.66 10.66 10.66 0 00-7.538 3.123zm-53.831 51.533l.592 2.253c1.582 6.022-2.959 11.871-9.185 11.871-6.3 0-10.872-5.981-9.253-12.068 3.562-13.392 7.174-27.614 8.858-36.955.011-.06.062-.1.123-.1.059 0 .109.039.122.097 1.781 8.415 5.586 22.891 8.743 34.902zM78.385 171.27l8.256-31.342c.002-.005.01-.006.012-.001a.006.006 0 00.005.003h17.398a21.002 21.002 0 0120.262 15.479l4.356 15.986c.206.69.734.896 1.568.896h17.354c.833 0 1.039-.528.833-1.362L115.19 58.149c-.206-.841-.52-1.047-1.254-1.047h-21.95c-.52 0-.834.313-.834 1.048a33.858 33.858 0 01-1.048 8.672L60.422 170.75c-.206 1.254 0 1.568 1.048 1.568h15.347c1.049 0 1.362-.215 1.568-1.048z" fill="#2DBE96"/><path fill-rule="evenodd" clip-rule="evenodd" d="M-.43 224.999c0 11.598 9.402 21 21 21h208.86c11.598 0 21-9.402 21-21V22.411c0-11.598-9.402-21-21-21H20.57c-11.598 0-21 9.402-21 21v202.588zM239.993 32.866c0-11.598-9.402-21-21-21H31.043c-11.597 0-21 9.402-21 21v181.678c0 11.598 9.403 21 21 21h187.95c11.598 0 21-9.402 21-21V32.866z" fill="#0E201B"/></g><defs><clipPath id="clip0_306_172"><path fill="#fff" transform="translate(0 .999)" d="M0 0h250v245.413H0z"/></clipPath></defs></svg>