<svg width="164" height="206" fill="none" xmlns="http://www.w3.org/2000/svg"><path fill-rule="evenodd" clip-rule="evenodd" d="M69.901 13.44c-13.024-.312-42.787 6.065-57.663 34.068-.052.782-1.313 2.47-5.939 2.97C3.747 56.156-1.046 69.856.204 79.233c2.032-.313 6.408 0 7.658 3.75 1.615.521 4.97 2.72 5.47 7.345l.057.547v.005c.679 6.493 2.813 26.935 25.26 26.328-4.845 6.876-14.378 23.379-13.753 34.381.781 13.753 3.75 15.159 13.753 12.502 6.707-1.781 17.012-2.699 22.716-3.011l.324.747c-9.44 3.414-26.052 9.811-26.166 13.36-.156 4.844 22.813 5.782 34.378 5.626l-8.212-18.986h.002l8.212 18.983v24.538H69.9v.001l.002-.001.001.001v-.001l8.28-3.125-1.25 3.126 16.565-10.627-2.344 5.001c4.688-3.386 14.534-10.877 16.409-13.753 1.876-2.875-1.406 3.49-3.282 7.033 3.855-2.032 12.471-8.377 16.097-17.503l-1.875 8.751c2.865-1.771 9.064-7.626 10.939-16.878v4.688c2.5-3.281 7.47-12.47 7.345-22.972l2.501 5.782c.573-2.24 1.469-7.845.468-12.346h10.627c1.25-.417 3.782-1.907 3.907-4.532 1.511.208 4.563-.688 4.688-5.939 1.459-2.448 4.47-10.001 4.845-20.628s-3.073-18.493-4.845-21.098c.313-2.135-.312-6.376-5.313-6.25-.104-1.616-.938-4.845-3.438-4.845h-5.001c-.99-8.023-3.844-25.255-7.345-30.006 1.146-1.25 3.094-4.407 1.719-7.032l-.029-.055C137.678 38.52 118.249 1.4 69.904 0h-.003.003v13.44h-.003zM19.344 63.936l-7.106-16.428 7.106 16.428c-1.786 3.753-3.07 7.109-3.825 9.514.789-1.091 3.692-1.712 7.056-2.044l1.488 3.44-1.487-3.44c3.571-.353 7.661-.38 10.29-.3.313-1.823 3.907-4.782 15.784-2.031 11.875 2.75 19.115 2.5 21.253 2.032v9.533h.002v5.782h-.002v29.647l-.136.006c-.941-.029-3.364-.375-6.618-.839h-.003a566.17 566.17 0 00-8.694-1.192c-5.163-.66-9.36 1.532-11.378 4.747l-2.116-4.89h-.001l2.116 4.892c-2.045 3.26-1.851 7.573 1.846 11.035.035-1.368.248-3.197.74-5.056l9.67 22.353.002-.001-9.67-22.354c1.008-3.806 3.186-7.734 7.385-8.07 2.827-.226 9.263.865 13.302 1.55 1.697.288 2.97.504 3.375.52v.001c.054.004.114.006.18.007v27.438c10.89-.185 23.055.782 34.948 4.251.331.097.656.226.949.409.267.167.504.337.713.51 1.902 1.565-.521 3.148-2.917 2.578-7.02-1.67-19.634-3.451-33.693-3.434v30.28l.001.003c11.565.156 34.535-.782 34.378-5.626-.125-3.876-17.45-10.991-26.098-14.065 4.324.104 14.971.844 22.973 2.969 10.001 2.657 12.971 1.251 13.752-12.502.625-11.002-8.908-27.505-13.752-34.381 22.447.607 24.581-19.835 25.258-26.327l.059-.553c.5-4.625 3.855-6.824 5.469-7.345 1.251-3.75 5.626-4.063 7.658-3.75 1.25-9.377-3.542-23.077-6.095-28.755-4.626-.5-5.886-2.188-5.938-2.97-14.877-28.003-44.64-34.38-57.664-34.068v8.908H69.9v.001l-8.123 4.218 1.719-4.22s-11.356 8.96-14.847 12.66l2.188-5.47s-11.096 11.408-14.221 15.47l2.032-6.094c-8.74 6.144-15.29 16.586-19.305 25.023zm37.696 87.14h-.002l4.327 10.004h.003l.323.747a444.63 444.63 0 012.402-.861 93.48 93.48 0 00-2.725.114l-4.328-10.004zM45.66 124.77v.002l-2.587-5.979.001-.002 2.586 5.979zm24.243-5.992v-2.709c1.085-.064 3.578-.414 6.826-.871h.001l.003-.001c2.485-.349 5.412-.761 8.49-1.153 10.399-1.328 16.878 8.907 9.533 15.784-.105-4.168-1.876-12.628-8.127-13.128-2.386-.191-7.1.611-10.996 1.273-2.561.436-4.77.811-5.73.805zm0-47.671c2.14.468 9.38.717 21.252-2.032 11.877-2.75 15.471.208 15.784 2.031 5.105-.156 15.721.094 17.347 2.344-2.449-7.814-10.502-25.66-23.129-34.537l2.031 6.095c-3.125-4.063-14.22-15.472-14.22-15.472l2.187 5.47c-3.49-3.698-14.846-12.658-14.846-12.658l1.719 4.22-8.124-4.219v48.758zm-50.559-7.171l3.232 7.47h-.001l-3.231-7.47zm9.85 22.772l-1.511-3.494 1.512 3.493zM68.05 124.67l-.626 9.69c-.263-4.347-3.19-4.586-7.38-4.928-.78-.064-1.605-.131-2.465-.23-3.126 0-7.501-2.656-6.72-5.782 1.609-6.435 13.596-1.875 17.19 1.25zm3.578 0l.625 9.69c.263-4.347 3.19-4.586 7.38-4.928.78-.064 1.605-.131 2.465-.23 3.126 0 7.502-2.656 6.72-5.782-1.609-6.435-13.596-1.875-17.19 1.25zm-1.692-44.031c1.928-.209 7.564-1.25 14.69-3.75 8.908-3.126 29.381-3.908 40.633 0 5.059 1.756 1.875 9.688-.782 9.532l-.004.027c-2.186 14.211-4.227 27.478-23.594 27.478-18.724 0-21.013-6.63-24.047-15.414-.892-2.58-1.847-5.346-3.301-8.184-2-3.75-3.595-3.907-3.595-3.907V80.64zm13.666 11.926c-.312-1.98-.531-6.376 1.094-8.127 1.626-1.75 9.116-1.563 12.659-1.25-3.647 1.094-11.502 4.5-13.753 9.377z" fill="#2DBE96"/></svg>