<svg width="35" height="35" fill="none" xmlns="http://www.w3.org/2000/svg"><path d="M24.383 15.75c-2.258 0-2.57 2.25-2.57 2.25h4.796s.032-2.25-2.226-2.25zM13.5 18H9.25v3.906h4.04c.608-.015 1.75-.187 1.75-1.898C15.04 17.977 13.5 18 13.5 18z" fill="#fff"/><path d="M17.5 0C7.836 0 0 7.836 0 17.5S7.836 35 17.5 35 35 27.164 35 17.5 27.164 0 17.5 0zm3.688 10.75h6.023v1.797h-6.023V10.75zm-3.047 9.438c0 4.453-4.641 4.312-4.641 4.312H5.906V9.89H13.5c2.313 0 4.133 1.274 4.133 3.891s-2.227 2.781-2.227 2.781c2.938 0 2.735 3.625 2.735 3.625zm11.265-.243h-7.57c0 2.711 2.57 2.54 2.57 2.54 2.43 0 2.344-1.57 2.344-1.57h2.57c0 4.17-5 3.882-5 3.882-5.992 0-5.61-5.586-5.61-5.586s-.007-5.61 5.61-5.61c5.914.008 5.086 6.344 5.086 6.344z" fill="#fff"/><path d="M14.531 14.008c0-1.516-1.031-1.516-1.031-1.516H9.25v3.258h3.984c.688 0 1.297-.227 1.297-1.742z" fill="#fff"/></svg>