<svg width="35" height="35" fill="none" xmlns="http://www.w3.org/2000/svg"><path d="M17.5 0C7.835 0 0 7.835 0 17.5S7.835 35 17.5 35 35 27.165 35 17.5 27.165 0 17.5 0zm6.73 19.744s1.548 1.528 1.929 2.237c.01.014.016.029.02.036.155.26.191.463.115.614-.128.252-.565.376-.715.387h-2.734c-.19 0-.587-.05-1.068-.381-.37-.259-.735-.684-1.09-1.097-.531-.617-.99-1.149-1.453-1.149a.557.557 0 00-.174.028c-.35.113-.798.612-.798 1.943 0 .415-.328.654-.56.654H16.45c-.427 0-2.649-.15-4.617-2.226-2.41-2.543-4.58-7.643-4.598-7.69-.137-.33.146-.507.454-.507h2.762c.368 0 .488.224.572.423.099.231.46 1.152 1.052 2.187.96 1.688 1.55 2.374 2.022 2.374a.547.547 0 00.253-.066c.616-.343.501-2.54.474-2.995 0-.086-.002-.983-.317-1.413-.226-.312-.61-.43-.844-.474.094-.13.219-.236.362-.308.423-.211 1.185-.242 1.942-.242h.421c.82.01 1.032.063 1.329.138.602.144.614.532.561 1.861-.016.378-.032.804-.032 1.307 0 .11-.006.226-.006.35-.018.677-.04 1.444.438 1.76a.39.39 0 00.207.06c.166 0 .666 0 2.018-2.32.418-.748.78-1.524 1.085-2.323.027-.048.108-.194.202-.25a.485.485 0 01.226-.053h3.247c.354 0 .596.053.642.19.08.217-.015.878-1.497 2.885l-.662.874c-1.343 1.76-1.343 1.85.084 3.186z" fill="#2DBE96"/></svg>