<svg width="35" height="35" viewBox="0 0 35 35" fill="none" xmlns="http://www.w3.org/2000/svg">
<path d="M24.3828 15.75C22.125 15.75 21.8125 18 21.8125 18H26.6094C26.6094 18 26.6406 15.75 24.3828 15.75ZM13.5 18H9.25V21.9062H13.2891C13.8984 21.8906 15.0391 21.7188 15.0391 20.0078C15.0391 17.9766 13.5 18 13.5 18Z" fill="#2DBE96"/>
<path d="M17.5 0C7.83594 0 0 7.83594 0 17.5C0 27.1641 7.83594 35 17.5 35C27.1641 35 35 27.1641 35 17.5C35 7.83594 27.1641 0 17.5 0ZM21.1875 10.75H27.2109V12.5469H21.1875V10.75ZM18.1406 20.1875C18.1406 24.6406 13.5 24.5 13.5 24.5H5.90625V9.89062H13.5C15.8125 9.89062 17.6328 11.1641 17.6328 13.7812C17.6328 16.3984 15.4062 16.5625 15.4062 16.5625C18.3438 16.5625 18.1406 20.1875 18.1406 20.1875ZM29.4062 19.9453H21.8359C21.8359 22.6562 24.4062 22.4844 24.4062 22.4844C26.8359 22.4844 26.75 20.9141 26.75 20.9141H29.3203C29.3203 25.0859 24.3203 24.7969 24.3203 24.7969C18.3281 24.7969 18.7109 19.2109 18.7109 19.2109C18.7109 19.2109 18.7031 13.6016 24.3203 13.6016C30.2344 13.6094 29.4062 19.9453 29.4062 19.9453Z" fill="#2DBE96"/>
<path d="M14.5313 14.0078C14.5313 12.4922 13.5 12.4922 13.5 12.4922H9.25V15.75H13.2344C13.9219 15.75 14.5313 15.5234 14.5313 14.0078Z" fill="#2DBE96"/>
</svg>
